<svg width="880" height="880" viewBox="0 0 880 880" fill="none" xmlns="http://www.w3.org/2000/svg">
<g clip-path="url(#clip0_1155_1603)">
<path fill-rule="evenodd" clip-rule="evenodd" d="M440 880C683.005 880 880 683.005 880 440C880 196.995 683.005 0 440 0C196.995 0 0 196.995 0 440C0 683.005 196.995 880 440 880ZM440 800C638.823 800 800 638.823 800 440C800 241.177 638.823 80 440 80C241.177 80 80 241.177 80 440C80 638.823 241.177 800 440 800Z" fill="white"/>
<path d="M384.654 124.773C379.12 135.649 376 147.96 376 161V341.57L246.453 212.787C238.19 204.573 238.639 191.014 247.953 184.016C287.432 154.35 333.997 133.605 384.654 124.773Z" fill="#F7931A"/>
<path d="M460.346 559.913L588.106 687.673C596.687 696.254 606.732 702.478 617.438 706.345C577.7 732.871 531.691 750.741 482.107 757.258C470.676 758.761 460.912 749.589 460.878 738.06L460.346 559.913Z" fill="#F7931A"/>
<path d="M420.878 738.173C420.912 749.703 411.201 758.933 399.76 757.498C342.678 750.336 290.273 728.139 246.635 694.996C237.423 687.999 236.969 674.558 245.124 666.354L386.098 524.535C398.66 511.899 420.229 520.758 420.282 538.576L420.878 738.173Z" fill="#F7931A"/>
<path d="M187.957 637.192C195.05 646.245 208.401 646.559 216.509 638.402L359.655 494.398C372.217 481.762 363.23 460.246 345.412 460.299L141.947 460.901C130.417 460.935 121.245 470.7 122.748 482.132C130.379 540.155 153.555 593.282 187.957 637.192Z" fill="#F7931A"/>
<path d="M122.503 399.785C121.069 411.225 130.298 420.935 141.828 420.901L350.018 420.285C367.836 420.232 376.695 398.663 364.059 386.101L217.396 240.303C209.297 232.252 196.062 232.571 188.974 241.524C153.633 286.161 129.944 340.447 122.503 399.785Z" fill="#F7931A"/>
<path d="M456 120C433.909 120 416 137.909 416 160V440C416 451.457 419.912 462.91 428.102 471.101L616.39 659.389C632.011 675.01 657.338 675.01 672.959 659.389C688.58 643.768 688.58 618.441 672.959 602.82L496 425.861V160C496 137.909 478.091 120 456 120Z" fill="white"/>
</g>
<defs>
<clipPath id="clip0_1155_1603">
<rect width="880" height="880" fill="white"/>
</clipPath>
</defs>
</svg>
